<?xml version="1.0" standalone="no"?>
<!DOCTYPE svg PUBLIC "-//W3C//DTD SVG 20010904//EN"
 "http://www.w3.org/TR/2001/REC-SVG-20010904/DTD/svg10.dtd">
<svg version="1.0" xmlns="http://www.w3.org/2000/svg"
 width="1024.000000pt" height="1024.000000pt" viewBox="0 0 1024.000000 1024.000000"
 preserveAspectRatio="xMidYMid meet">

<g transform="translate(0.000000,1024.000000) scale(0.100000,-0.100000)"
fill="#000000" stroke="none">
<path d="M5323 9151 c-22 -16 -50 -41 -62 -57 -24 -30 -104 -187 -138 -270
l-21 -51 -98 -7 c-114 -7 -208 -27 -263 -56 -49 -24 -108 -93 -121 -139 -31
-113 7 -203 149 -354 110 -115 112 -128 15 -138 -114 -12 -310 -39 -424 -59
-63 -10 -172 -26 -241 -35 -411 -51 -672 -168 -801 -358 -49 -72 -93 -197
-107 -303 -6 -47 -10 -267 -9 -544 2 -477 -1 -520 -37 -520 -8 0 -15 -4 -15
-8 0 -4 -17 -6 -37 -4 -21 3 -35 1 -31 -3 4 -5 3 -14 -3 -21 -8 -9 -5 -11 10
-7 12 3 21 1 21 -5 0 -6 8 -8 19 -5 10 3 22 0 25 -6 7 -11 -34 -24 -129 -41
-33 -5 -72 -13 -86 -16 l-26 -6 1 229 c1 125 -2 244 -7 264 -10 50 -59 120
-99 144 -28 17 -51 19 -148 19 -94 0 -132 -5 -208 -28 -52 -15 -112 -29 -135
-33 -23 -3 -45 -10 -49 -17 -4 -6 -8 -7 -8 -2 0 5 -6 3 -13 -3 -13 -10 -44
-19 -76 -20 -8 -1 -11 -4 -8 -7 4 -4 -11 -15 -32 -26 -21 -10 -43 -30 -50 -44
-6 -14 -17 -104 -23 -199 l-12 -174 -18 51 c-23 67 -40 92 -112 163 -41 41
-75 65 -102 73 -55 16 -167 15 -229 -2 -266 -75 -316 -96 -358 -146 -37 -44
-42 -84 -28 -255 8 -105 11 -592 11 -1625 0 -811 0 -1514 0 -1562 0 -83 1 -88
31 -118 17 -17 48 -38 68 -46 49 -22 196 -29 273 -15 86 16 305 79 340 97 75
39 137 117 153 194 4 19 9 38 12 42 2 4 30 -5 62 -22 75 -37 216 -64 290 -55
154 19 334 91 408 163 30 29 44 53 53 91 6 28 14 51 17 51 2 0 23 -11 46 -25
91 -53 195 -64 368 -39 43 6 48 4 54 -16 19 -59 189 -200 305 -252 99 -45 235
-70 515 -98 61 -6 173 -19 250 -30 77 -10 167 -22 199 -25 l59 -7 -7 33 c-12
61 -39 103 -71 111 -16 4 -190 27 -385 52 -391 50 -438 60 -539 110 -67 34
-191 140 -191 164 0 6 18 21 41 32 l41 21 47 -44 c91 -85 149 -104 451 -146
252 -35 489 -57 513 -48 10 4 14 12 11 21 -3 9 1 23 10 31 9 9 16 24 16 34 0
9 10 28 23 41 12 14 21 28 19 33 -1 5 2 6 8 2 5 -3 10 1 10 10 0 8 7 18 15 21
8 4 15 12 15 20 0 8 5 14 11 14 5 0 7 -5 3 -12 -4 -7 -3 -8 5 -4 6 4 9 11 6
16 -3 4 2 13 10 20 8 7 15 9 15 6 0 -4 7 -1 15 6 64 58 87 63 216 43 42 -7 48
-5 54 14 8 25 45 49 46 29 0 -7 4 -4 9 7 6 17 9 17 14 4 8 -19 -20 -89 -37
-89 -142 -6 -254 -23 -297 -45 -48 -25 -113 -89 -131 -129 -25 -54 -23 -128 4
-198 23 -61 110 -171 189 -243 l48 -43 -21 -78 c-29 -113 -30 -245 -1 -301 49
-95 147 -137 269 -114 82 15 195 66 246 110 l37 33 81 -52 c113 -72 184 -100
259 -100 99 0 163 45 206 146 23 50 22 191 0 295 l-16 75 109 110 c90 91 112
119 130 167 23 62 27 130 11 171 -16 43 3 29 28 -20 12 -25 20 -49 17 -54 -8
-13 8 -13 106 4 46 8 149 24 229 36 161 23 273 47 227 49 -36 1 -63 31 -128
139 -28 48 -77 119 -109 157 -91 111 -272 397 -259 409 10 11 70 -29 88 -58
11 -17 46 -56 79 -87 32 -31 85 -92 116 -135 32 -44 91 -120 132 -169 40 -50
94 -124 119 -165 43 -73 44 -75 22 -82 -12 -4 3 -4 33 -1 183 18 282 52 366
126 57 51 112 160 125 252 5 39 9 228 7 427 -1 196 1 361 6 365 4 4 29 13 55
19 l48 10 -4 -410 c-4 -439 -10 -501 -57 -601 -12 -27 -46 -75 -75 -107 -97
-106 -192 -149 -411 -187 -69 -12 -155 -28 -192 -36 -36 -8 -170 -31 -297 -50
-127 -19 -241 -39 -253 -44 -34 -13 -65 -51 -82 -98 -16 -47 -14 -53 24 -53
32 0 331 50 535 90 83 16 202 38 265 50 266 48 396 107 517 232 69 71 108 137
141 233 l26 80 4 483 3 483 25 10 c14 5 48 9 75 9 93 0 402 89 479 138 36 23
68 64 86 110 1 1 25 -9 55 -23 92 -42 218 -28 395 46 73 30 78 35 98 81 13 30
25 47 33 44 49 -19 193 -37 247 -31 194 22 372 137 470 304 53 90 72 133 86
198 22 94 80 558 90 717 6 88 17 215 25 281 8 66 19 165 25 220 6 55 22 161
35 235 49 274 124 961 111 1014 -16 64 -115 116 -222 116 -56 0 -272 -42 -332
-64 -20 -8 -83 -28 -139 -45 -109 -34 -133 -52 -133 -104 0 -24 -3 -28 -17
-22 -101 39 -214 26 -473 -55 -85 -26 -180 -54 -210 -62 l-55 -14 1 -52 c1
-29 1 -52 0 -52 0 0 -26 7 -56 15 -30 8 -89 15 -130 15 -80 -1 -113 -7 -336
-64 -77 -19 -156 -37 -175 -38 -33 -3 -34 -2 -55 63 -28 87 -73 170 -131 243
-60 75 -225 186 -321 216 -134 42 -572 102 -982 136 -187 15 -230 23 -230 44
0 4 43 54 96 111 52 57 106 122 120 145 33 56 46 131 34 196 -24 127 -128 185
-377 210 -73 8 -113 16 -113 24 0 19 -128 273 -158 312 -39 51 -111 82 -193
82 -57 0 -71 -4 -106 -29z m154 -153 c22 -24 73 -120 73 -138 0 -5 -5 -9 -11
-7 -6 1 -14 -4 -17 -12 -3 -9 0 -11 9 -6 11 6 12 5 2 -6 -17 -17 -16 -29 2
-29 11 0 13 -8 8 -32 -4 -22 -3 -29 5 -24 7 4 12 1 12 -7 0 -7 11 -19 25 -25
19 -9 25 -9 25 1 0 6 14 -12 30 -40 17 -29 34 -53 38 -53 4 0 78 -9 165 -20
157 -20 200 -33 228 -66 10 -13 10 -16 1 -10 -8 5 -20 2 -30 -7 -9 -8 -67 -41
-129 -72 -117 -60 -213 -138 -233 -189 -24 -63 6 -196 70 -312 27 -50 30 -61
19 -81 -11 -20 -10 -25 7 -38 34 -25 76 -30 91 -9 13 17 14 14 11 -31 -3 -46
-5 -50 -30 -53 -15 -2 -52 10 -85 27 -77 39 -241 138 -276 167 -16 13 -33 24
-39 24 -6 0 -38 -22 -72 -48 -56 -45 -126 -87 -126 -76 0 7 21 32 48 57 16 15
19 23 10 29 -9 5 -8 8 6 8 12 0 16 5 12 15 -3 8 0 15 5 15 7 0 9 11 7 24 -4
19 -1 23 10 18 11 -4 14 -1 9 11 -4 11 2 17 24 22 16 4 29 11 29 16 0 13 -3
12 -65 -16 -63 -28 -195 -113 -195 -126 0 -5 -4 -9 -10 -9 -16 0 -81 -70 -75
-81 4 -5 10 -7 15 -4 4 2 10 -6 12 -20 3 -14 1 -25 -3 -25 -5 0 -9 -7 -9 -15
0 -26 -49 -30 -73 -6 -31 31 -26 111 19 291 l37 145 -130 130 c-71 72 -137
147 -147 168 -16 34 -16 41 -3 61 31 46 59 53 378 92 l46 5 43 97 c81 181 153
292 190 292 9 0 26 -10 37 -22z m433 -732 c-7 -7 -15 -5 -22 3 -11 10 -10 11
5 5 14 -5 16 -2 11 12 -5 16 -4 16 5 4 6 -9 7 -18 1 -24z m-1090 -336 c0 -10
-5 -41 -11 -69 -9 -42 -14 -51 -37 -55 -15 -3 -99 -17 -187 -31 -217 -34 -343
-59 -322 -63 22 -5 22 -15 -3 -37 -20 -18 -22 -18 -38 -1 -15 15 -15 18 -2 27
22 16 -118 3 -290 -27 -234 -40 -353 -111 -422 -252 l-33 -66 -8 -486 c-4
-267 -10 -499 -12 -517 -6 -32 -20 -43 -67 -49 -25 -3 -27 0 -34 41 -3 25 -4
246 -1 493 6 488 12 551 63 658 37 77 150 190 225 226 75 36 264 83 437 107
79 12 193 30 255 41 62 11 175 29 252 40 77 11 154 24 170 29 49 15 65 13 65
-9z m1370 0 c36 -6 207 -26 380 -45 494 -55 620 -81 721 -146 111 -71 223
-224 248 -337 10 -46 3 -54 -60 -72 -27 -8 -29 -7 -29 19 0 46 -67 167 -123
222 -74 73 -159 112 -302 138 -59 11 -321 40 -540 61 -139 13 -355 39 -377 46
-11 3 -19 20 -23 52 -4 26 -9 55 -12 66 -4 15 -1 17 24 12 15 -3 57 -10 93
-16z m3540 -158 c0 -36 -44 -379 -54 -427 -17 -72 -23 -120 -35 -245 -5 -52
-23 -201 -40 -330 -17 -129 -37 -298 -45 -375 -8 -77 -24 -178 -34 -225 -26
-113 -39 -193 -52 -320 -6 -58 -17 -127 -25 -154 -8 -27 -24 -102 -35 -165
-42 -236 -41 -234 -81 -242 -19 -4 -55 -16 -80 -27 -53 -23 -197 -59 -254 -64
l-40 -3 -47 270 c-44 255 -115 740 -173 1175 -37 274 -101 662 -124 745 -11
38 -18 71 -16 73 1 2 54 16 116 32 63 16 147 39 186 52 40 12 75 19 79 16 3
-4 15 -71 25 -150 11 -79 28 -206 39 -283 11 -77 29 -214 40 -305 11 -91 31
-262 46 -380 14 -118 29 -246 33 -285 9 -89 15 -65 36 145 17 167 36 341 59
540 8 69 31 283 52 476 l39 350 175 56 c175 57 210 65 210 50z m-5675 -176
c108 -112 398 -458 501 -596 264 -355 244 -332 267 -319 12 7 17 6 17 -3 0 -9
3 -9 10 2 5 8 10 10 10 4 0 -6 6 -11 13 -11 9 0 13 13 13 36 -2 45 -42 109
-174 274 -54 67 -115 152 -137 187 -39 66 -90 137 -110 155 -13 12 -131 156
-167 206 -20 27 -24 39 -15 48 8 8 7 11 -6 11 -9 0 -17 5 -17 10 0 7 7 7 21 0
11 -7 18 -18 15 -25 -3 -9 0 -12 9 -9 8 3 12 13 9 22 -3 9 1 7 7 -5 7 -13 19
-23 27 -23 13 0 32 -14 113 -86 83 -72 246 -298 318 -441 27 -54 61 -111 75
-128 23 -28 25 -28 26 -8 0 12 -9 97 -19 190 -28 243 -29 263 -20 257 5 -2 14
4 21 15 11 18 13 18 25 3 9 -13 12 -13 13 -3 0 11 3 11 15 1 12 -10 16 -8 23
11 8 21 10 18 15 -21 8 -53 27 -385 30 -515 2 -101 5 -104 74 -86 31 9 38 15
38 34 -1 13 -5 28 -9 35 -7 11 -25 457 -26 630 0 78 -1 82 -22 83 -13 1 6 7
42 14 44 9 67 10 71 3 8 -13 21 -604 15 -676 -2 -30 -7 -56 -11 -60 -3 -3 4
-14 16 -23 21 -16 24 -16 56 5 22 14 33 29 34 46 5 108 -5 737 -12 746 -6 8
-1 17 17 29 35 23 80 27 95 9 7 -8 8 -14 3 -13 -20 4 -28 -2 -14 -11 12 -8 15
-70 20 -397 3 -213 4 -393 2 -400 -2 -6 -10 -9 -18 -6 -8 3 -14 0 -14 -6 0 -9
-63 -32 -130 -46 -14 -2 -65 -16 -115 -30 -49 -14 -100 -24 -112 -22 -12 2
-20 1 -18 -3 3 -4 -5 -10 -17 -13 -13 -4 -26 -1 -30 6 -5 8 -8 7 -8 -5 0 -12
-8 -18 -22 -17 -27 1 -49 -4 -64 -13 -6 -4 -25 -4 -41 1 -18 5 -37 5 -47 -1
-20 -11 -37 -1 -18 11 9 5 4 18 -20 48 -71 87 -136 162 -213 243 -44 47 -109
123 -144 170 -71 94 -136 171 -252 300 -88 98 -155 210 -137 228 19 19 50 4
103 -52z m1511 -285 c-2 -257 -4 -290 -19 -305 -9 -10 -17 -22 -17 -27 0 -6
-4 -8 -9 -4 -5 3 -11 -2 -13 -10 -3 -14 -6 -14 -21 -2 -17 12 -19 35 -22 299
l-4 286 27 8 c15 4 33 6 40 5 6 -1 12 3 12 9 0 6 -4 8 -10 5 -5 -3 -10 -2 -10
4 0 5 10 12 23 14 12 2 23 5 24 6 0 0 0 -129 -1 -288z m190 250 l30 -12 -8
-62 c-4 -34 -8 -114 -7 -177 0 -63 0 -119 -1 -125 0 -5 -23 -11 -50 -12 l-51
-2 1 209 1 208 27 -8 c15 -5 41 -13 58 -19z m-1992 -70 c4 -5 25 -19 49 -30
48 -23 564 -538 685 -683 91 -110 132 -142 172 -136 39 6 37 -1 -7 -34 -41
-32 -78 -36 -92 -10 -5 9 -141 147 -303 307 -385 380 -448 446 -448 462 0 7
-9 13 -20 13 -19 0 -23 9 -23 52 0 10 -3 15 -8 13 -4 -3 -14 8 -22 25 -13 25
-13 30 -2 30 8 0 16 -4 19 -9z m3184 -31 c-7 -11 -15 -15 -17 -9 -2 6 3 15 10
20 20 12 21 11 7 -11z m-68 6 c0 -2 -7 -6 -15 -10 -8 -3 -15 -1 -15 4 0 6 7
10 15 10 8 0 15 -2 15 -4z m-7 -20 c16 2 18 -2 13 -24 -5 -20 -4 -23 4 -12 6
10 10 11 10 3 0 -27 -115 -142 -142 -143 -44 0 -4 110 56 157 14 11 22 24 18
29 -4 5 0 3 8 -3 8 -6 23 -9 33 -7z m-478 -107 c11 -4 -14 -5 -55 -2 -41 3
-82 10 -90 14 -18 11 117 0 145 -12z m2014 -34 c93 -51 157 -153 187 -297 12
-57 15 -120 11 -283 -4 -255 -7 -262 -123 -418 l-84 -112 39 -13 c59 -20 115
-87 141 -169 19 -60 23 -102 30 -348 9 -291 22 -398 59 -493 12 -29 21 -56 21
-60 0 -8 -74 -28 -274 -73 l-99 -23 -22 28 c-45 57 -48 81 -54 492 -7 454 -3
434 -97 434 -31 0 -56 -5 -61 -12 -4 -7 -6 -239 -4 -514 3 -482 2 -502 -15
-507 -11 -3 -68 -17 -129 -32 -60 -14 -136 -35 -168 -47 -50 -18 -60 -19 -68
-7 -6 8 -8 477 -7 1170 2 922 0 1159 -10 1171 -11 13 -3 18 55 32 38 9 127 35
200 57 179 54 203 58 318 56 90 -2 106 -6 154 -32z m-2399 -8 c0 -12 -40 -47
-70 -62 -19 -10 -55 -34 -80 -55 -25 -20 -54 -42 -65 -48 -17 -9 -21 -7 -21 9
0 10 4 19 8 19 4 0 4 8 1 17 -5 13 -2 15 11 10 10 -4 15 -3 11 3 -5 9 6 12 32
9 4 0 11 9 15 21 6 16 15 21 35 20 44 -3 55 -1 48 10 -4 6 -12 7 -18 3 -7 -4
-6 0 2 10 15 18 26 23 16 7 -10 -16 7 -12 40 9 33 22 35 22 35 18z m997 -32
c-4 -8 -17 -15 -29 -15 -20 -1 -21 -2 -6 -11 14 -8 15 -13 6 -22 -17 -19 -58
-20 -58 -2 0 16 57 62 71 58 5 -2 9 2 9 9 0 6 3 9 6 5 4 -3 4 -13 1 -22z
m-1130 -7 c-3 -8 -6 -5 -6 6 -1 11 2 17 5 13 3 -3 4 -12 1 -19z m556 -108 c77
-37 152 -112 192 -193 39 -79 72 -217 77 -316 l3 -64 -55 -13 c-30 -7 -122
-44 -203 -83 -82 -39 -151 -71 -153 -71 -3 0 -2 67 2 150 6 130 5 152 -10 175
-13 20 -25 25 -58 25 -35 0 -47 -6 -79 -40 -55 -58 -73 -126 -66 -254 6 -126
45 -252 113 -363 52 -87 68 -108 202 -272 169 -207 233 -323 279 -508 24 -96
27 -127 27 -283 0 -264 -28 -371 -134 -512 -75 -100 -145 -157 -268 -220 -74
-38 -91 -42 -170 -46 -189 -9 -330 57 -417 193 -69 109 -102 242 -112 457 l-6
137 28 11 c16 6 109 51 207 100 99 50 181 90 184 90 2 0 4 -106 4 -236 0 -274
6 -309 57 -331 47 -19 99 -3 145 44 61 63 81 121 86 252 8 211 -27 294 -249
586 -305 402 -360 508 -389 751 -24 202 29 431 139 592 75 111 179 198 288
241 70 27 87 30 193 27 74 -2 106 -8 143 -26z m1157 -175 c0 -109 -4 -196 -9
-200 -5 -3 -58 -18 -118 -34 -59 -16 -152 -42 -205 -57 l-98 -28 0 -262 0
-262 63 14 c34 8 94 23 132 33 66 18 105 25 132 22 17 -1 21 -41 26 -217 l5
-151 -122 -27 c-66 -15 -145 -34 -173 -42 l-52 -14 -3 -315 c-2 -219 0 -315 8
-315 6 0 73 18 150 39 76 22 162 45 189 51 28 6 57 13 65 15 13 4 15 -23 16
-203 l2 -207 -102 -29 c-55 -16 -130 -37 -166 -48 -147 -43 -294 -78 -329 -78
-31 0 -122 -26 -192 -54 -13 -6 -15 104 -12 1107 3 907 1 1126 -10 1185 -8 39
-12 74 -9 77 3 3 24 5 46 5 44 1 182 36 481 123 216 63 267 75 278 70 4 -2 7
-91 7 -198z m-3680 90 c0 4 43 -34 95 -86 53 -51 102 -97 111 -102 8 -5 12
-13 8 -18 -3 -5 -2 -8 3 -7 18 6 104 -68 211 -181 62 -66 109 -122 104 -124
-15 -10 -109 44 -173 100 -36 32 -115 98 -175 147 -104 86 -297 276 -289 285
3 2 11 -1 18 -7 8 -7 18 -8 22 -4 5 4 5 1 1 -5 -4 -8 -1 -13 9 -13 10 0 14 5
10 13 -4 6 1 3 9 -7 9 -11 18 -17 21 -14 8 7 -5 38 -16 38 -5 0 -9 6 -9 13 1
6 10 1 20 -12 11 -13 20 -20 20 -16z m1666 -599 c-1 -112 -3 -206 -6 -208 -12
-9 -150 -48 -207 -59 -35 -6 -69 -17 -77 -23 -12 -9 -16 -67 -22 -301 -6 -246
-5 -288 7 -279 8 6 30 14 50 18 40 7 75 40 109 104 13 23 27 42 32 42 13 0 21
-48 14 -93 -14 -95 -91 -184 -199 -230 -50 -21 -57 -40 -16 -45 69 -7 90 -15
118 -44 35 -36 75 -114 67 -134 -3 -8 3 -34 13 -58 15 -33 18 -63 17 -127 -3
-93 -14 -159 -26 -159 -5 0 -21 26 -35 58 -15 31 -35 75 -46 97 -10 22 -29 67
-41 100 -17 44 -31 64 -56 78 -18 11 -35 17 -38 15 -2 -3 2 -57 10 -119 8 -63
20 -262 25 -444 6 -181 13 -362 15 -401 l4 -71 -126 -32 c-107 -27 -173 -45
-283 -77 -16 -4 -17 68 -14 963 1 532 0 979 -2 993 -5 26 -5 26 -64 16 -50 -8
-62 -7 -70 4 -5 8 -9 92 -9 185 0 94 -3 180 -6 193 -4 15 -2 22 7 22 8 0 120
30 249 66 129 36 294 78 365 94 72 15 146 35 165 43 19 9 44 16 56 16 21 1 21
-2 20 -203z m-2978 -166 c-1 -184 -3 -905 -2 -1602 0 -1086 -2 -1268 -14
-1268 -8 0 -44 -9 -80 -19 -131 -37 -245 -62 -253 -54 -16 17 -333 1111 -413
1428 -41 160 -70 248 -85 253 -11 4 -13 -4 -8 -34 4 -22 10 -440 13 -929 l7
-890 -119 -29 c-65 -15 -145 -37 -177 -47 -31 -10 -64 -19 -72 -19 -14 0 -16
167 -15 1563 1 1084 -2 1571 -9 1590 -17 44 -13 54 22 61 17 3 93 25 169 47
75 23 143 39 150 36 9 -3 33 -74 62 -184 26 -98 67 -243 91 -323 24 -80 67
-221 95 -315 29 -93 53 -177 55 -185 6 -27 171 -567 199 -650 2 -8 4 396 3
898 -2 853 -1 912 15 912 9 0 72 17 140 38 68 22 139 44 158 50 77 23 72 47
68 -328z m2142 320 c-8 -5 -19 -10 -25 -10 -5 0 -3 5 5 10 8 5 20 10 25 10 6
0 3 -5 -5 -10z m-556 -46 c26 -15 45 -28 43 -31 -7 -6 -57 8 -57 17 0 4 -9 10
-20 13 -11 3 -20 10 -20 16 0 15 1 15 54 -15z m-79 4 c14 -6 25 -15 25 -20 0
-7 -55 15 -69 28 -9 9 20 3 44 -8z m397 -250 c18 -14 52 -35 75 -47 71 -36 91
-102 78 -256 -6 -73 -10 -88 -26 -92 -26 -7 -32 -34 -19 -102 12 -70 12 -311
-1 -390 -16 -98 -50 -172 -105 -228 l-52 -52 32 -11 c39 -13 101 -74 116 -115
18 -47 40 -163 39 -203 0 -20 -3 -31 -6 -24 -2 6 -13 12 -23 12 -19 0 -19 -12
-17 -287 1 -299 -11 -474 -40 -568 -19 -60 -35 -80 -74 -94 l-29 -10 0 207 c0
302 -26 803 -44 845 -17 43 -51 67 -92 67 -66 0 -62 42 -56 -544 l5 -532 -104
-23 c-57 -13 -139 -35 -181 -49 -43 -14 -80 -23 -83 -20 -3 3 -6 460 -7 1017
-1 948 -2 1011 -18 1011 -10 0 -37 -7 -60 -15 -23 -8 -44 -15 -46 -15 -3 0 -3
86 -2 192 l3 192 140 37 c112 29 305 80 460 122 41 11 105 -1 137 -25z m-798
-365 c4 -115 4 -577 2 -1028 -5 -773 -7 -824 -25 -897 -11 -42 -31 -98 -44
-125 -56 -109 -235 -266 -345 -300 -28 -9 -86 -15 -142 -15 -176 0 -280 53
-339 175 -68 140 -65 82 -71 1147 -3 531 -9 973 -14 983 -6 12 -4 17 7 17 9 0
86 20 173 45 86 25 169 45 184 45 l27 0 3 -652 c3 -931 12 -1321 29 -1341 32
-40 123 3 159 73 l22 45 -2 968 -3 968 25 6 c14 3 68 18 120 34 158 48 194 58
211 58 14 1 17 -25 23 -206z m2878 -1980 c10 -9 18 -23 18 -32 0 -8 27 -42 61
-76 128 -128 284 -296 299 -323 8 -15 18 -28 22 -30 4 -2 15 -19 24 -38 9 -19
20 -34 25 -34 5 0 6 -7 2 -15 -3 -9 2 -22 13 -30 16 -12 17 -16 5 -24 -16 -10
-51 3 -51 19 0 10 -49 65 -58 65 -4 0 -61 56 -127 125 -134 140 -287 355 -278
390 6 24 20 25 45 3z m309 -97 c60 -50 85 -70 105 -82 24 -14 59 -62 51 -70
-7 -8 -49 18 -87 53 -14 13 -28 23 -33 23 -14 0 -117 102 -112 110 3 4 -2 10
-10 14 -8 3 -15 10 -15 16 0 12 43 -15 101 -64z m-659 -40 c16 -33 49 -84 72
-115 23 -31 60 -85 81 -121 21 -36 53 -87 71 -115 41 -64 114 -205 114 -222 0
-7 4 -13 9 -13 10 0 21 -68 14 -87 -11 -28 -39 -17 -66 26 -16 25 -46 65 -67
90 -21 25 -58 87 -83 136 -24 50 -78 155 -120 235 -68 130 -76 151 -77 201 0
53 10 85 18 57 3 -7 18 -40 34 -72z m-127 -86 c49 -98 126 -376 108 -389 -13
-10 -15 -34 -3 -41 6 -4 12 -31 14 -60 l3 -54 -20 25 c-10 13 -24 31 -31 40
-13 18 -60 44 -117 64 -42 15 -189 39 -226 37 -13 -1 -23 3 -23 8 0 6 -5 10
-11 10 -5 0 -7 -4 -4 -10 3 -5 2 -10 -3 -10 -11 0 -33 46 -25 54 3 3 11 -2 18
-10 17 -23 63 -26 75 -5 5 11 5 66 -1 147 -10 138 -7 174 16 174 8 0 15 6 16
13 0 8 2 8 6 -2 3 -7 13 -21 23 -31 15 -15 53 -164 67 -267 5 -37 9 -42 38
-47 18 -4 45 -16 60 -27 14 -12 28 -19 31 -16 7 7 -56 307 -85 405 -7 24 -7
39 2 52 11 18 12 18 30 2 11 -9 29 -37 42 -62z m-557 -10 c28 -13 52 -27 52
-31 0 -13 -4 -12 -51 13 -52 27 -149 30 -195 5 -17 -9 -52 -40 -78 -69 l-46
-53 16 40 c31 79 38 93 46 89 4 -3 8 -1 8 4 0 10 22 19 70 31 37 9 117 -4 178
-29z m75 -49 c3 -14 1 -18 -9 -14 -15 6 -18 16 -7 26 9 10 10 9 16 -12z m-136
-143 c12 -13 56 -93 98 -179 l78 -157 45 -6 c25 -3 70 -6 101 -6 99 -1 181
-17 207 -41 27 -26 31 -61 9 -79 -12 -10 -15 -10 -15 3 0 42 -27 31 -238 -95
-73 -44 -137 -89 -143 -100 -16 -31 -1 -110 46 -240 23 -65 39 -118 35 -118
-4 0 -27 8 -51 19 -49 21 -132 34 -123 20 3 -5 12 -9 20 -9 9 0 12 -5 8 -12
-4 -7 -4 -10 1 -6 9 9 76 -24 94 -46 8 -9 18 -16 23 -16 5 0 21 -8 35 -17 36
-24 77 -29 70 -9 -3 8 1 17 9 20 8 3 14 19 15 38 1 54 17 3 18 -57 2 -100 -46
-101 -189 -5 -66 43 -185 110 -197 110 -5 0 -45 -27 -89 -60 -91 -70 -205
-130 -244 -130 -15 0 -34 7 -41 17 -21 24 -15 160 10 270 33 145 35 140 -68
228 -167 143 -213 222 -158 272 30 29 79 40 232 53 71 6 130 12 131 13 1 1 28
52 60 112 118 227 159 269 211 213z m-752 -87 c-4 -24 -12 -41 -20 -41 -8 0
-16 -8 -19 -18 -3 -9 -15 -23 -26 -30 -23 -14 -27 -1 -6 17 8 7 17 23 20 37 5
17 12 24 21 20 10 -3 16 5 21 30 9 49 18 35 9 -15z m-695 -144 c0 -28 -46 -97
-65 -97 -8 0 -15 3 -16 8 0 4 -2 17 -5 29 -2 15 7 30 32 52 41 37 54 39 54 8z
m180 -112 c-7 -8 -16 -12 -21 -9 -5 3 -9 0 -9 -5 0 -6 -6 -11 -12 -11 -7 1 -2
10 11 20 27 24 49 27 31 5z m1794 -160 c-4 -8 -8 -15 -10 -15 -2 0 -4 7 -4 15
0 8 4 15 10 15 5 0 7 -7 4 -15z m-27 -37 c-3 -8 -6 -5 -6 6 -1 11 2 17 5 13 3
-3 4 -12 1 -19z m-17 -22 c0 -2 -7 -9 -15 -16 -13 -11 -14 -10 -9 4 5 14 24
23 24 12z m-52 -60 c-7 -8 -15 -12 -17 -11 -5 6 10 25 20 25 5 0 4 -6 -3 -14z
m-21 -32 c-3 -3 -12 -4 -19 -1 -8 3 -5 6 6 6 11 1 17 -2 13 -5z"/>
<path d="M5325 7620 c-3 -6 1 -7 9 -4 18 7 21 14 7 14 -6 0 -13 -4 -16 -10z"/>
<path d="M5128 7533 c7 -3 16 -2 19 1 4 3 -2 6 -13 5 -11 0 -14 -3 -6 -6z"/>
<path d="M5100 7491 c0 -6 4 -13 10 -16 6 -3 7 1 4 9 -7 18 -14 21 -14 7z"/>
<path d="M5131 7454 c0 -11 3 -14 6 -6 3 7 2 16 -1 19 -3 4 -6 -2 -5 -13z"/>
<path d="M5123 6805 c-8 -9 -9 -15 0 -24 8 -8 7 -11 -3 -12 -23 -1 21 -17 48
-18 13 -1 21 3 17 9 -3 5 -12 7 -20 3 -11 -4 -13 -1 -9 11 3 9 1 16 -4 16 -6
0 -12 6 -14 14 -2 11 -5 12 -15 1z"/>
<path d="M6796 7403 c-11 -11 -6 -23 9 -23 8 0 15 4 15 9 0 13 -16 22 -24 14z"/>
<path d="M8103 6943 c-19 -4 -22 -13 -28 -83 -7 -76 2 -531 11 -539 9 -9 77
35 100 65 48 62 57 100 62 261 8 286 -9 322 -145 296z"/>
<path d="M4310 5947 l-54 -12 -1 -312 c0 -171 3 -314 7 -318 10 -11 84 32 111
65 15 17 33 53 41 81 20 65 37 224 39 359 3 152 -11 164 -143 137z"/>
<path d="M4182 5295 c0 -16 2 -22 5 -12 2 9 2 23 0 30 -3 6 -5 -1 -5 -18z"/>
<path d="M5319 2639 c-91 -58 -181 -148 -173 -174 4 -14 3 -16 -4 -7 -8 11
-10 11 -15 0 -7 -20 62 -46 73 -28 4 6 10 10 13 8 7 -3 50 26 79 55 10 9 22
17 27 17 5 0 12 7 15 16 4 10 2 13 -7 9 -6 -4 3 5 21 20 18 15 30 31 27 36 -4
5 1 9 9 9 16 0 11 29 -7 41 -4 3 -1 13 8 23 28 28 1 18 -66 -25z"/>
<path d="M7214 8741 c-44 -27 -94 -91 -94 -121 0 -29 111 -140 140 -140 11 0
44 20 75 46 l56 45 150 -10 c203 -15 206 -15 212 8 2 11 -1 30 -7 43 -12 23
-14 23 -179 23 -166 0 -167 0 -184 25 -35 51 -91 100 -114 100 -13 0 -38 -9
-55 -19z"/>
<path d="M4015 8695 c-14 -13 -25 -35 -25 -48 0 -34 34 -73 75 -87 38 -13 69
-1 118 44 27 25 27 27 12 56 -32 61 -134 82 -180 35z"/>
<path d="M8435 8708 c-33 -18 -67 -52 -76 -75 -5 -13 -17 -23 -26 -23 -33 0
-91 -48 -103 -86 -15 -44 -11 -65 32 -179 28 -75 40 -94 75 -121 55 -42 129
-58 203 -44 85 16 135 62 147 135 3 22 18 58 32 79 19 29 26 53 26 87 0 41 -5
53 -34 83 -19 19 -46 38 -60 41 -17 4 -34 19 -46 41 -10 20 -31 44 -46 55 -30
21 -92 25 -124 7z m66 -148 c19 -33 32 -43 76 -57 29 -9 53 -21 53 -26 0 -5
-16 -27 -36 -49 -33 -37 -35 -44 -29 -84 5 -36 4 -43 -9 -38 -18 7 -31 37 -17
42 16 5 3 22 -16 22 -10 0 -14 -6 -10 -20 4 -17 0 -20 -30 -20 -19 0 -41 -7
-49 -15 -31 -31 -44 -18 -44 41 0 49 -3 58 -30 81 -16 13 -30 33 -30 44 0 16
7 19 49 19 l49 0 21 50 c12 28 23 50 26 50 2 0 14 -18 26 -40z"/>
<path d="M6747 8622 c-23 -25 -21 -48 5 -66 30 -21 46 -20 85 7 39 26 41 40
11 61 -30 22 -81 20 -101 -2z"/>
<path d="M3380 8507 c-32 -16 -41 -74 -14 -94 23 -17 151 -17 184 0 31 16 39
61 14 88 -14 15 -31 19 -88 19 -39 0 -82 -6 -96 -13z"/>
<path d="M2825 8313 c-28 -21 -69 -47 -92 -57 -24 -10 -45 -28 -49 -38 -8 -26
20 -55 68 -70 21 -6 38 -14 38 -18 0 -4 16 -23 35 -43 38 -39 76 -48 105 -24
28 22 120 139 120 151 0 23 -127 136 -152 136 -13 0 -46 -17 -73 -37z"/>
<path d="M1915 8141 c-27 -12 -61 -51 -70 -79 -7 -25 -40 -42 -83 -42 -30 -1
-50 -14 -75 -50 -27 -38 -22 -91 13 -138 24 -34 30 -52 30 -94 1 -68 29 -132
68 -152 22 -11 61 -15 158 -15 201 1 244 30 244 162 0 49 4 66 15 71 25 9 48
75 42 119 -7 53 -47 93 -109 109 -36 9 -53 19 -63 38 -33 63 -113 96 -170 71z
m78 -153 l23 -51 52 -3 c60 -3 72 -8 72 -33 0 -17 -45 -59 -94 -88 -12 -7 -15
-12 -7 -13 9 0 11 -8 7 -27 -3 -16 -3 -22 0 -15 3 6 10 12 16 12 6 0 5 -7 -3
-16 -7 -9 -14 -23 -15 -31 -4 -23 -10 -26 -32 -14 -32 17 -62 13 -109 -15 -24
-14 -48 -22 -54 -19 -9 6 -5 92 7 137 3 10 -9 29 -31 49 -53 49 -48 67 23 71
l57 3 24 53 c14 28 29 52 33 52 5 0 19 -23 31 -52z"/>
<path d="M1915 7759 c-14 -17 -23 -34 -20 -37 6 -6 44 27 56 50 16 30 -7 21
-36 -13z"/>
<path d="M2390 7315 c-269 -42 -861 -177 -908 -206 -12 -8 -22 -22 -22 -31 0
-23 35 -58 58 -58 51 0 167 25 547 116 77 18 223 47 325 64 232 39 264 48 268
77 2 12 -6 31 -17 42 -26 26 -61 26 -251 -4z"/>
<path d="M2208 6713 c6 -2 18 -2 25 0 6 3 1 5 -13 5 -14 0 -19 -2 -12 -5z"/>
<path d="M9485 4498 c-212 -40 -554 -108 -642 -127 -51 -12 -161 -30 -246 -40
-162 -21 -195 -29 -216 -55 -11 -13 -11 -22 -3 -41 11 -24 16 -25 95 -25 149
0 412 40 725 111 123 27 259 54 304 60 93 12 133 29 141 61 7 26 -14 63 -40
70 -10 2 -63 -4 -118 -14z"/>
<path d="M8142 4158 c-19 -19 -14 -63 9 -84 30 -27 168 -27 198 1 27 24 27 60
-1 79 -28 20 -187 23 -206 4z"/>
<path d="M8934 4066 c-17 -8 -43 -29 -57 -48 -19 -24 -49 -43 -106 -66 -95
-39 -115 -64 -114 -138 0 -41 7 -61 32 -97 27 -39 31 -54 31 -109 0 -108 43
-163 136 -174 37 -5 59 -2 83 11 30 15 41 15 97 4 58 -12 68 -11 111 7 58 24
82 62 90 141 3 32 16 78 29 103 30 59 38 93 30 135 -12 64 -55 99 -147 119
-16 3 -36 22 -53 49 -15 24 -36 48 -46 54 -31 20 -83 24 -116 9z m58 -160 c-3
-5 -1 -6 5 -3 5 3 17 -9 26 -28 16 -34 18 -35 76 -35 69 0 89 -15 65 -48 -10
-14 -26 -22 -45 -22 -37 0 -79 -39 -79 -73 0 -34 -23 -51 -49 -38 -27 15 -41
14 -41 -4 0 -8 -4 -15 -10 -15 -5 0 -10 -4 -10 -10 0 -5 8 -10 18 -10 9 0 -7
-16 -38 -35 -30 -19 -57 -35 -61 -35 -16 0 -17 31 -4 87 20 81 19 100 -5 108
-24 8 -76 82 -66 93 5 4 33 7 64 7 60 0 64 3 115 96 l19 34 13 -30 c7 -16 10
-34 7 -39z m99 -300 c14 -15 11 -36 -6 -36 -13 0 -71 25 -84 36 -6 5 23 29 39
32 8 2 20 8 25 13 7 7 11 2 13 -13 2 -13 8 -27 13 -32z"/>
<path d="M7888 2974 c-16 -8 -37 -32 -48 -54 -11 -21 -42 -57 -69 -80 -89 -75
-87 -114 10 -236 65 -82 94 -104 135 -104 55 0 78 15 158 104 106 120 104 144
-32 291 -83 91 -109 104 -154 79z m99 -268 c-18 -17 -40 -42 -50 -56 -10 -14
-20 -20 -22 -15 -19 40 -49 78 -66 82 -10 3 -19 8 -19 10 0 3 21 28 47 57 l47
52 47 -49 48 -50 -32 -31z"/>
<path d="M7252 2612 c-58 -36 -64 -64 -22 -107 18 -19 46 -39 62 -46 28 -12
32 -10 80 38 32 32 49 57 45 66 -5 12 -107 79 -118 76 -2 0 -23 -13 -47 -27z"/>
<path d="M6760 2600 c-11 -11 -20 -23 -20 -27 1 -21 63 -73 86 -73 19 0 74 50
74 66 0 16 -72 53 -102 54 -10 0 -27 -9 -38 -20z"/>
<path d="M4053 2584 c-42 -33 -43 -64 -2 -98 40 -34 91 -35 124 -1 34 33 32
67 -6 99 -39 33 -75 33 -116 0z"/>
<path d="M3002 2493 c-37 -18 -139 -141 -148 -179 -16 -62 42 -168 124 -231
37 -28 52 -33 100 -33 47 0 64 5 105 33 104 70 154 195 108 270 -38 63 -82
112 -119 134 -45 28 -121 30 -170 6z m188 -212 c0 -23 -90 -121 -111 -121 -26
0 -121 141 -99 148 8 3 35 25 59 49 l45 44 53 -53 c29 -29 53 -59 53 -67z"/>
<path d="M3429 2418 c-2 -23 2 -43 13 -65 10 -20 19 -23 72 -23 81 0 101 7
117 37 12 23 11 27 -10 44 -19 15 -40 19 -107 19 -60 0 -84 -4 -85 -12z"/>
<path d="M3875 2330 c-11 -5 -33 -20 -50 -33 l-30 -25 24 -26 c13 -14 39 -30
58 -36 28 -10 38 -9 67 9 43 27 51 48 29 73 -16 17 -66 49 -75 47 -2 0 -12 -4
-23 -9z"/>
<path d="M2213 2303 c-96 -3 -114 -6 -122 -22 -7 -13 -6 -24 6 -40 15 -23 17
-23 207 -17 289 8 382 24 374 64 -3 15 -22 17 -178 17 -96 1 -226 -1 -287 -2z"/>
<path d="M5423 2233 c-29 -2 -53 -9 -53 -15 0 -14 137 -5 153 11 12 12 12 12
-100 4z"/>
<path d="M4200 2131 c0 -5 -6 -16 -14 -23 -12 -12 -11 -18 5 -39 17 -23 20
-23 46 -9 31 18 41 44 23 65 -14 16 -60 21 -60 6z"/>
<path d="M4900 1250 c-372 -19 -515 -32 -844 -81 -38 -5 -88 -18 -110 -28
l-41 -18 40 -11 c51 -14 220 -27 625 -49 452 -25 1519 -25 1825 0 306 24 511
37 585 37 76 0 143 16 137 33 -7 23 -225 56 -512 78 -77 5 -228 17 -335 25
-229 18 -1099 27 -1370 14z"/>
</g>
</svg>
